<?xml version="1.0" encoding="UTF-8"?>
<svg version="1.1" xmlns="http://www.w3.org/2000/svg" width="512" height="512">
<path d="M0 0 C1.54747925 -0.02779541 1.54747925 -0.02779541 3.1262207 -0.05615234 C8.96775803 -0.00726116 12.92987671 0.29943041 17.375 4.5 C20.33466045 9.05397611 19.63134164 14.69466544 19.5625 19.9375 C19.56185547 20.86626953 19.56121094 21.79503906 19.56054688 22.75195312 C19.53051062 27.44094571 19.3370724 31.88974907 18.375 36.5 C24.09485787 37.80989112 27.29702442 37.07662209 32.25 34.25 C33.67308308 33.49618616 35.09906592 32.74783043 36.52734375 32.00390625 C37.30319824 31.5980127 38.07905273 31.19211914 38.87841797 30.77392578 C64.85379346 17.51952432 93.57080917 7.33180451 122.375 2.5 C123.41462891 2.31888672 124.45425781 2.13777344 125.52539062 1.95117188 C134.88292757 0.4511902 144.04809721 0.10079227 153.5 0.125 C154.26613617 0.12521149 155.03227234 0.12542297 155.82162476 0.12564087 C168.05256206 0.15925241 179.58380224 1.0157126 191.375 4.5 C192.6228125 4.850625 193.870625 5.20125 195.15625 5.5625 C216.06562483 12.22389375 234.06445442 27.07075874 244.52734375 46.3671875 C259.81177479 76.15881552 259.73279965 112.43452746 252.375 144.5 C252.17132813 145.42039063 251.96765625 146.34078125 251.7578125 147.2890625 C247.15498215 167.68926122 240.28650668 187.67653191 231.1875 206.5 C227.62174467 213.95404504 226.45154008 219.2837391 228.375 227.5 C229.20394466 233.18007633 229.54590513 238.70564185 229.578125 244.44140625 C229.58513931 245.27814377 229.59215363 246.11488129 229.59938049 246.97697449 C229.61683024 249.67220476 229.62323552 252.36721526 229.625 255.0625 C229.62567474 255.98317261 229.62634949 256.90384521 229.62704468 257.85241699 C229.61064437 271.92970373 229.14299727 285.65461269 226.375 299.5 C226.20339355 300.37382324 226.03178711 301.24764648 225.85498047 302.14794922 C221.80833399 322.08464452 214.69595917 354.75227882 199.46875 369.32421875 C196.9168818 370.75726414 195.88915748 370.52215342 193.0625 370 C190.66365275 369.806497 190.66365275 369.806497 188.375 370.5 C186.17006433 372.93191435 184.73128875 375.46040003 183.15234375 378.3359375 C180.76685556 382.58263076 177.79385419 386.27350374 174.78125 390.08984375 C173.14099956 392.35168405 173.14099956 392.35168405 173.61328125 394.66796875 C173.86464844 395.27253906 174.11601562 395.87710937 174.375 396.5 C175.62543742 400.81969292 175.21384434 403.38449123 173.375 407.5 C171.07843543 410.64714404 169.82201512 411.39238525 166 412.3125 C162.375 412.5 162.375 412.5 159.41015625 411.76953125 C156.34481121 411.16471492 156.34481121 411.16471492 154.20703125 413.0546875 C153.54058594 413.82039063 152.87414062 414.58609375 152.1875 415.375 C147.9825363 419.95962823 143.47460088 423.74780932 138.5625 427.5546875 C136.13544338 429.3873826 136.13544338 429.3873826 135.375 432.5 C135.50122722 434.42496503 135.628969 436.35073982 135.828125 438.26953125 C134.93623568 442.65977956 131.83910633 445.43565989 128.34619141 447.97485352 C125.95218468 449.50783074 123.52431662 450.95350923 121.0625 452.375 C120.17602783 452.89529785 119.28955566 453.4155957 118.3762207 453.95166016 C96.53993099 466.63281934 73.18136568 476.36575221 48.375 481.5 C47.49553711 481.68481934 46.61607422 481.86963867 45.70996094 482.06005859 C30.33480364 485.14501625 15.25491568 485.87705589 -0.375 485.875 C-1.26910583 485.87681274 -2.16321167 485.87862549 -3.08441162 485.88049316 C-12.99834702 485.87821604 -22.59070567 485.50717739 -32.37207031 483.82666016 C-38.10501932 483.25095573 -42.84224727 484.33370568 -48.046875 486.6875 C-49.05854736 487.13464355 -50.07021973 487.58178711 -51.11254883 488.04248047 C-52.18915771 488.52346191 -53.2657666 489.00444336 -54.375 489.5 C-73.69938763 497.88473536 -93.58690623 504.77569813 -114.24853516 509.01220703 C-115.77443572 509.32541325 -117.29789936 509.65088169 -118.81787109 509.99169922 C-139.78433802 514.64611078 -165.83822083 515.20888287 -186.625 509.5 C-187.88183594 509.1596875 -189.13867188 508.819375 -190.43359375 508.46875 C-203.95757293 504.37141342 -216.10615215 497.96883808 -226.625 488.5 C-227.29660156 487.92121094 -227.96820313 487.34242188 -228.66015625 486.74609375 C-245.78584462 470.98228914 -254.7657027 446.1592278 -255.76538086 423.28833008 C-256.825425 383.70718051 -248.99949106 345.09100406 -231.73535156 309.25244141 C-227.66498742 300.80120708 -225.4125545 294.95069311 -227.625 285.5 C-228.45615145 279.80826868 -228.79600658 274.27105087 -228.828125 268.5234375 C-228.83857849 267.26402596 -228.83857849 267.26402596 -228.84924316 265.97917175 C-228.86657339 263.27772981 -228.87296504 260.57649525 -228.875 257.875 C-228.87600708 256.95371307 -228.87701416 256.03242615 -228.87805176 255.08322144 C-228.86788152 241.3499562 -228.40208947 227.9931239 -225.625 214.5 C-225.44855957 213.63262207 -225.27211914 212.76524414 -225.09033203 211.87158203 C-224.02422421 206.72482227 -222.86707476 201.60700788 -221.625 196.5 C-223.543125 196.1596875 -223.543125 196.1596875 -225.5 195.8125 C-230.69446237 194.76168337 -235.81681294 193.48461643 -240.9375 192.125 C-241.71399902 191.92817627 -242.49049805 191.73135254 -243.29052734 191.52856445 C-247.8874253 190.27879213 -251.12431308 188.8991196 -254.625 185.5 C-256.20824757 182.33350487 -256.26874236 178.92541806 -255.625 175.5 C-253.02554961 171.23318044 -250.11964697 167.73816576 -246.59765625 164.20703125 C-246.12686142 163.73432297 -245.65606659 163.26161469 -245.17100525 162.77458191 C-244.18261984 161.78484568 -243.1917451 160.79758958 -242.19848633 159.81274414 C-240.68788778 158.31288502 -239.18829806 156.80261043 -237.68945312 155.29101562 C-236.72199494 154.32487876 -235.75391668 153.35936233 -234.78515625 152.39453125 C-233.91511963 151.52675049 -233.04508301 150.65896973 -232.14868164 149.76489258 C-227.84950361 145.90657057 -224.81313431 144.09331174 -219 144.25 C-217.94554687 144.27578125 -216.89109375 144.3015625 -215.8046875 144.328125 C-212.89988956 144.48514111 -210.01965629 144.71472952 -207.125 145 C-206.23039062 145.07347656 -205.33578125 145.14695313 -204.4140625 145.22265625 C-201.625 145.5 -201.625 145.5 -198.5859375 146.05859375 C-195.1633706 146.47883298 -192.91927905 146.56194181 -189.625 145.5 C-186.28314429 141.80524433 -184.04729081 137.74520428 -181.68847656 133.38085938 C-172.76417707 117.59738755 -158.50753632 104.0395102 -145.625 91.5 C-146.29402344 91.00113281 -146.96304688 90.50226563 -147.65234375 89.98828125 C-155.95394818 83.78157834 -164.19173454 77.49367646 -172.41943359 71.18945312 C-175.28295402 68.99601043 -178.14822926 66.80486919 -181.01391602 64.61425781 C-182.41717307 63.54124571 -183.82000783 62.46768111 -185.22241211 61.39355469 C-188.90524768 58.57367688 -192.59536477 55.76408138 -196.296875 52.96875 C-197.06322266 52.38802734 -197.82957031 51.80730469 -198.61914062 51.20898438 C-200.07902852 50.10300869 -201.54112916 48.99994521 -203.00585938 47.90039062 C-214.09172559 39.48633667 -214.09172559 39.48633667 -215.25 33 C-215.11371013 27.13953566 -211.19127516 23.95978437 -207.20996094 20.05859375 C-205.36942924 18.24868088 -203.56404203 16.40663479 -201.7578125 14.5625 C-199.11014761 11.87413604 -196.4587669 9.18992778 -193.78515625 6.52734375 C-193.22449463 5.96781006 -192.66383301 5.40827637 -192.08618164 4.83178711 C-188.98392842 2.00425306 -186.08363702 2.19494865 -182.06378174 2.24765015 C-178.09485312 2.65833001 -174.96678592 4.22733166 -171.4609375 6.05078125 C-170.34167374 6.60536766 -170.34167374 6.60536766 -169.19979858 7.17115784 C-166.79139915 8.36879831 -164.39608883 9.59044572 -162 10.8125 C-160.32809157 11.64853587 -158.65523154 12.48267134 -156.98144531 13.31494141 C-153.68087913 14.9577626 -150.38429064 16.60813866 -147.09082031 18.26513672 C-141.55476092 21.0442578 -135.97306467 23.72333828 -130.375 26.375 C-128.60657233 27.21703116 -126.83834179 28.05947644 -125.0703125 28.90234375 C-124.19922852 29.31726074 -123.32814453 29.73217773 -122.43066406 30.15966797 C-119.28151993 31.66408855 -116.13657003 33.17705933 -112.9921875 34.69140625 C-111.86844727 35.2323291 -110.74470703 35.77325195 -109.58691406 36.33056641 C-107.43472865 37.36697879 -105.28300109 38.40434273 -103.13183594 39.44287109 C-101.19875947 40.37315222 -99.26331678 41.29853741 -97.32519531 42.21826172 C-95.5584173 43.05692217 -93.79704494 43.90709095 -92.04199219 44.77001953 C-91.25211914 45.14626465 -90.46224609 45.52250977 -89.6484375 45.91015625 C-88.96442871 46.24281494 -88.28041992 46.57547363 -87.57568359 46.91821289 C-85.00652674 47.6844583 -84.08842443 47.61290897 -81.625 46.5 C-79.57022323 44.65406819 -77.68155211 42.80935581 -75.78515625 40.8125 C-74.62708491 39.62617342 -73.46887706 38.43998009 -72.31054688 37.25390625 C-70.51066199 35.39255951 -68.7143175 33.52794833 -66.92163086 31.65966797 C-48.21090694 12.22137723 -27.54272506 0.31154579 0 0 Z M119.375 24.5 C118.05508057 24.79801514 118.05508057 24.79801514 116.70849609 25.10205078 C102.18343685 28.45746765 88.27073309 33.13198624 74.375 38.5 C76.94591195 41.07091195 79.76428739 41.7828692 83.125 42.9375 C105.06241537 50.85483891 125.3200014 62.82256048 143.375 77.5 C143.89094727 77.9129834 144.40689453 78.3259668 144.93847656 78.75146484 C159.41262071 90.37491414 172.45715989 103.47358097 183.375 118.5 C184.14070313 119.54414062 184.90640625 120.58828125 185.6953125 121.6640625 C199.14609067 140.55139213 210.31034005 161.37645962 217.375 183.5 C220.74771842 178.44092237 222.26681966 172.55047911 224.1875 166.8125 C224.4115451 166.14604462 224.63559021 165.47958923 224.86642456 164.79293823 C231.24931417 145.6751973 235.55932482 126.33532723 235.61523438 106.12402344 C235.62484927 104.032784 235.65589292 101.94256843 235.6875 99.8515625 C235.85760365 78.28404246 229.86684535 57.85737056 214.84375 41.8828125 C206.83947588 34.15716817 197.88652854 29.068232 187.375 25.5 C186.75399414 25.28827148 186.13298828 25.07654297 185.49316406 24.85839844 C165.1350709 18.33429646 140.01456766 19.74294082 119.375 24.5 Z M-217.625 330.5 C-227.15916967 355.53062989 -234.78740877 380.50895625 -234.86523438 407.52416992 C-234.87486256 409.53381271 -234.90602598 411.543315 -234.9375 413.55273438 C-235.0212788 434.90585602 -229.09004241 455.24022202 -214.22265625 471.05078125 C-197.31247577 486.9946657 -175.86305652 492.11496639 -153.125 491.9375 C-152.43390137 491.93412628 -151.74280273 491.93075256 -151.03076172 491.92727661 C-123.65980932 491.73536913 -98.11268152 483.95399056 -72.625 474.5 C-75.05422383 472.88051745 -76.81176145 471.95855999 -79.484375 470.9765625 C-97.45310646 464.18970386 -115.08439294 455.89954709 -130.625 444.5 C-132.07132813 443.45972656 -132.07132813 443.45972656 -133.546875 442.3984375 C-151.51298621 429.22639224 -168.13891289 414.19846116 -181.37353516 396.20019531 C-182.62232441 394.50363496 -183.89387103 392.82604025 -185.16796875 391.1484375 C-198.54420493 373.2747067 -209.9353306 351.81708085 -216.625 330.5 C-216.955 330.5 -217.285 330.5 -217.625 330.5 Z " fill="#010101" transform="translate(255.625,-0.5)"/>
<path d="M0 0 C20.78431558 6.98197848 40.12249038 16.41401273 57.87353516 29.30078125 C58.46279785 29.72182129 59.05206055 30.14286133 59.65917969 30.57666016 C71.08310374 38.78667562 82.06868057 48.29471301 90.87353516 59.30078125 C90.00776855 59.30489014 89.14200195 59.30899902 88.25 59.31323242 C84.96521204 59.34058013 81.68216927 59.39003811 78.39794922 59.45336914 C76.99018445 59.47623492 75.58225624 59.4908692 74.17431641 59.49633789 C57.81539404 59.57229003 43.39863787 64.17385678 31.12353516 75.55078125 C21.26157132 86.14588868 16.56584192 98.2046149 15.81958008 112.46337891 C15.54999643 116.00682888 15.14350167 117.98308301 12.81884766 120.71875 C9.17669287 122.67507982 5.72655 123.19559636 1.68603516 123.67578125 C-5.67721693 124.77233554 -11.20403831 126.5851888 -17.12646484 131.30078125 C-17.76841797 131.80351562 -18.41037109 132.30625 -19.07177734 132.82421875 C-25.14307109 138.21216341 -30.69033052 147.46319854 -31.3034668 155.66992188 C-31.37038808 158.71364054 -31.41145579 161.75644602 -31.43896484 164.80078125 C-31.46796875 165.83976563 -31.49697266 166.87875 -31.52685547 167.94921875 C-31.61587339 178.93266069 -28.60113326 188.14496799 -21.12646484 196.30078125 C-13.7263093 203.80540957 -4.39921166 208.49210031 6.22367859 208.57183838 C7.43021843 208.56576569 7.43021843 208.56576569 8.66113281 208.55957031 C9.95491096 208.56482727 9.95491096 208.56482727 11.27482605 208.57019043 C14.11249957 208.57895963 16.94992181 208.57317665 19.78759766 208.56640625 C21.7648422 208.56775404 23.74208642 208.56969552 25.71932983 208.57220459 C29.85670131 208.57514912 33.99398626 208.57087884 38.13134766 208.56152344 C43.43543677 208.55011438 48.73932379 208.55670184 54.04340553 208.56866837 C58.12343878 208.57589231 62.20342403 208.57359682 66.28345871 208.56841278 C68.23949584 208.56707854 70.19553732 208.56871611 72.15156937 208.57337189 C74.88273945 208.5784475 77.61358097 208.57071294 80.34472656 208.55957031 C81.15313492 208.56361877 81.96154327 208.56766724 82.79444885 208.57183838 C88.16633977 208.57502023 88.16633977 208.57502023 92.87353516 206.30078125 C94.89049738 203.27533791 95.13164612 202.69010743 95.06103516 199.30078125 C95.05458984 198.62015625 95.04814453 197.93953125 95.04150391 197.23828125 C94.93051262 195.08319916 94.93051262 195.08319916 93.87353516 192.30078125 C89.64123584 189.87208454 85.28262593 190.02011935 80.53833008 190.04541016 C79.29829979 190.03997948 79.29829979 190.03997948 78.03321838 190.03443909 C76.24300932 190.02756077 74.45277937 190.02503671 72.6625576 190.02638626 C69.82439959 190.02735384 66.98661788 190.01438121 64.14851379 189.99740601 C56.08089107 189.95120785 48.01330714 189.9265365 39.94555664 189.91992188 C35.00536665 189.91489543 30.06556973 189.89058787 25.12551308 189.85459518 C23.24816566 189.84482332 21.37076399 189.84245092 19.49339867 189.84776688 C16.86081588 189.85487103 14.2293968 189.83748693 11.59692383 189.81494141 C10.44560471 189.82720009 10.44560471 189.82720009 9.27102661 189.83970642 C3.18352562 189.74745943 -2.10704799 188.08360221 -6.65830708 183.88897133 C-13.28864736 176.35758178 -12.93402701 167.84626376 -12.37353516 158.34814453 C-11.6897431 152.68185975 -8.56276681 149.63198795 -4.56396484 145.92578125 C-0.38217445 143.13792099 2.81246045 142.05599063 7.86499023 141.36376953 C15.51377873 140.30380338 21.39699577 139.14936815 26.87353516 133.30078125 C28.01822266 132.09421875 28.01822266 132.09421875 29.18603516 130.86328125 C33.0629152 124.97616711 34.25432447 119.87220799 34.74853516 112.98828125 C35.6885985 103.13731171 38.74093076 95.43338564 45.87353516 88.30078125 C54.12293475 81.85643262 61.86490836 78.86998979 72.26416016 78.7890625 C73.13119568 78.7711113 73.9982312 78.7531601 74.89154053 78.73466492 C77.63549034 78.68094776 80.37927232 78.64682439 83.12353516 78.61328125 C84.98032952 78.58006634 86.83710148 78.5455729 88.69384766 78.50976562 C94.75367968 78.39772759 100.81250165 78.30078125 106.87353516 78.30078125 C108.62671838 80.51022963 110.01730807 82.57268018 111.43603516 84.98828125 C111.86513184 85.70089111 112.29422852 86.41350098 112.73632812 87.14770508 C125.42318396 108.52384299 135.31963082 130.1973263 140.32226562 154.63378906 C140.68779994 156.40221108 141.0694929 158.16737498 141.46777344 159.92871094 C146.56339752 182.50278396 146.93614711 207.47757166 142.87353516 230.30078125 C142.72819336 231.19539062 142.58285156 232.09 142.43310547 233.01171875 C139.06169 253.52284518 133.0967853 273.30621056 123.34887695 291.73828125 C120.98093231 296.36272343 119.59127489 301.04735055 119.87353516 306.30078125 C121.1729826 307.99400064 122.5027973 309.66473929 123.87353516 311.30078125 C122.64166432 318.18046666 117.47939938 323.47137447 113.30908203 328.84375 C112.72835938 329.61589844 112.14763672 330.38804687 111.54931641 331.18359375 C111.01218018 331.87855957 110.47504395 332.57352539 109.92163086 333.28955078 C108.65811848 335.24093617 108.65811848 335.24093617 109.16333008 337.40966797 C109.51488159 338.34576904 109.51488159 338.34576904 109.87353516 339.30078125 C111.12397258 343.62047417 110.7123795 346.18527248 108.87353516 350.30078125 C106.57697058 353.44792529 105.32055028 354.1931665 101.49853516 355.11328125 C97.87353516 355.30078125 97.87353516 355.30078125 94.90869141 354.5703125 C91.84334637 353.96549617 91.84334637 353.96549617 89.70556641 355.85546875 C89.03912109 356.62117188 88.37267578 357.386875 87.68603516 358.17578125 C84.31593092 361.82006345 80.88454255 365.12981912 77.06103516 368.30078125 C75.72105469 369.41453125 75.72105469 369.41453125 74.35400391 370.55078125 C72.06297963 372.16712593 70.64689755 373.05305171 67.87353516 373.30078125 C67.25478516 372.82640625 66.63603516 372.35203125 65.99853516 371.86328125 C63.09877772 369.73110667 61.42658309 369.98524293 57.87353516 370.30078125 C55.07930583 371.51395975 55.07930583 371.51395975 52.37353516 373.30078125 C51.32552734 373.94144531 50.27751953 374.58210938 49.19775391 375.2421875 C48.10076172 375.92152344 47.00376953 376.60085938 45.87353516 377.30078125 C26.52703837 388.8444205 -0.13809296 404.30078125 -23.12646484 404.30078125 C-23.14628418 403.60106201 -23.16610352 402.90134277 -23.18652344 402.18041992 C-23.28294036 398.94938753 -23.39213759 395.71890158 -23.50146484 392.48828125 C-23.54787109 390.83795898 -23.54787109 390.83795898 -23.59521484 389.15429688 C-24.09966763 374.90350572 -26.21468244 363.85702269 -36.13037109 353.15234375 C-46.69212061 343.3553393 -60.09887999 341.85617949 -73.96240234 341.89453125 C-75.12599274 341.88369507 -76.28958313 341.87285889 -77.48843384 341.86169434 C-82.40598912 341.81626963 -87.32348345 341.80431873 -92.24121094 341.78955078 C-95.85679736 341.77384532 -99.47194747 341.74086786 -103.08740234 341.70703125 C-104.74381241 341.71156311 -104.74381241 341.71156311 -106.4336853 341.71618652 C-113.84970074 341.6439916 -118.44547258 340.5264975 -124.81396484 336.67578125 C-130.60884767 330.72427997 -131.8053553 323.01123392 -132.91210938 315.06152344 C-133.65836385 310.23866169 -135.27324537 307.21263572 -138.12646484 303.30078125 C-138.45646484 302.31078125 -138.78646484 301.32078125 -139.12646484 300.30078125 C-140.84166231 299.27426752 -140.84166231 299.27426752 -143.12646484 298.30078125 C-144.87571942 297.28377278 -146.6119048 296.24705037 -148.34521484 295.203125 C-152.18151604 293.25973558 -155.81869846 293.17980096 -160.07177734 293.16015625 C-161.23193359 293.14082031 -162.39208984 293.12148438 -163.58740234 293.1015625 C-166.00650954 293.06803543 -168.42587676 293.04950472 -170.84521484 293.046875 C-179.61855668 292.8628866 -186.6678467 291.41638962 -193.26538086 285.32641602 C-198.8512285 279.42363009 -201.26829286 273.96180077 -201.50146484 265.80078125 C-201.26577688 257.55170267 -198.76228454 252.168726 -193.20068359 246.1640625 C-187.00268484 240.5963687 -180.86323457 239.07418594 -172.74365234 238.66015625 C-167.42324706 237.92959314 -163.62469269 235.04065875 -160.18896484 231.05078125 C-159.18406907 228.44987453 -158.90964549 226.60799673 -158.68896484 223.86328125 C-158.30114466 219.37351685 -157.12148414 216.78147936 -154.12646484 213.30078125 C-149.78323371 209.90160297 -146.95180555 208.79705329 -141.45361328 208.76733398 C-139.49062286 208.74357948 -139.49062286 208.74357948 -137.48797607 208.71934509 C-136.07059369 208.72318826 -134.65321411 208.72822825 -133.23583984 208.734375 C-131.76621102 208.72913294 -130.29658556 208.72285433 -128.82696533 208.71559143 C-125.75036771 208.70520294 -122.67423298 208.70972245 -119.59765625 208.72436523 C-115.67924181 208.74149924 -111.76230126 208.71811877 -107.84405136 208.68287563 C-104.80853794 208.66077049 -101.77336956 208.66237528 -98.7378006 208.67064095 C-97.29468424 208.67145433 -95.85154096 208.66470945 -94.40850067 208.64986992 C-84.06258196 208.55982182 -76.31898883 209.89842396 -68.25146484 216.73828125 C-61.05428293 225.41723591 -59.84681555 232.15191286 -59.88818359 243.12890625 C-59.87276187 245.47917243 -59.85645809 247.82943295 -59.83935547 250.1796875 C-59.82292781 253.86389697 -59.8139589 257.54769062 -59.82104492 261.23193359 C-59.82367682 264.80222944 -59.79545738 268.37127772 -59.76318359 271.94140625 C-59.77849373 273.57471893 -59.77849373 273.57471893 -59.79411316 275.24102783 C-59.70170514 282.53529868 -58.36627038 288.25859868 -54.12646484 294.30078125 C-49.35856114 298.76616097 -45.24249659 301.40123803 -38.59130859 301.44140625 C-17.9874301 301.80612632 -17.9874301 301.80612632 -10.50146484 308.82421875 C-5.96508263 313.90187384 -4.88081266 317.75484898 -4.78271484 324.48046875 C-4.76809204 325.17085236 -4.75346924 325.86123596 -4.73840332 326.57254028 C-4.69204574 328.77356211 -4.65778099 330.97449719 -4.62646484 333.17578125 C-4.58510112 336.06933295 -4.53132534 338.96227415 -4.47021484 341.85546875 C-4.45152344 343.13921387 -4.43283203 344.42295898 -4.41357422 345.74560547 C-4.12696609 349.29457446 -3.58405537 352.05416315 -2.12646484 355.30078125 C1.52351822 356.51744227 5.09151972 357.05579898 8.87353516 356.30078125 C11.62036128 354.86606254 11.62036128 354.86606254 13.87353516 352.30078125 C14.37039108 349.32195218 14.55306233 346.92422183 14.50244141 343.94921875 C14.50605934 342.72810898 14.50605934 342.72810898 14.50975037 341.48233032 C14.50877182 339.75916681 14.49537618 338.03597191 14.47045898 336.31298828 C14.43641571 333.70493583 14.44973033 331.10032592 14.46923828 328.4921875 C14.45784295 314.10653071 11.69108918 304.27865444 1.36962891 293.76953125 C-8.44397625 284.99878877 -21.27318375 283.0921805 -33.95849609 282.59106445 C-39.03851065 282.38873544 -39.03851065 282.38873544 -40.12646484 281.30078125 C-40.23853763 279.81959417 -40.28319133 278.33322571 -40.30004883 276.84790039 C-40.32028358 275.42490379 -40.32028358 275.42490379 -40.34092712 273.97315979 C-40.3565847 272.42023476 -40.3565847 272.42023476 -40.37255859 270.8359375 C-40.4055292 268.65168919 -40.43874024 266.46744449 -40.47216797 264.28320312 C-40.51936467 260.83393142 -40.56371958 257.38467084 -40.60327148 253.93530273 C-40.64330231 250.61034708 -40.69480573 247.28571238 -40.74755859 243.9609375 C-40.76017982 242.43533958 -40.76017982 242.43533958 -40.77305603 240.87892151 C-40.9882587 228.24460369 -43.62419414 217.61640346 -51.12646484 207.30078125 C-51.66271484 206.49640625 -52.19896484 205.69203125 -52.75146484 204.86328125 C-61.3500494 195.58586107 -73.58289471 190.42429625 -86.14783955 189.72844601 C-89.69066814 189.62640394 -93.22723086 189.63667433 -96.77099609 189.671875 C-98.31744046 189.67104315 -99.8638847 189.66857193 -101.4103241 189.66456604 C-104.62156379 189.6617355 -107.83209534 189.67614418 -111.04321289 189.70385742 C-115.13273259 189.73808148 -119.22100086 189.73184818 -123.31058216 189.71319485 C-126.49277469 189.70257052 -129.67468172 189.71160915 -132.85684776 189.72657967 C-134.36413408 189.73171249 -135.87145081 189.73134018 -137.37873268 189.72503471 C-150.33135403 189.69114306 -159.37870802 191.68745438 -168.92333984 200.796875 C-173.79506297 206.33370926 -176.10933176 212.05501878 -177.12646484 219.30078125 C-178.68494141 219.62949219 -178.68494141 219.62949219 -180.27490234 219.96484375 C-188.83891048 221.87275386 -195.91111494 224.08969521 -203.12646484 229.30078125 C-204.01333984 229.87828125 -204.90021484 230.45578125 -205.81396484 231.05078125 C-214.81027121 239.8039442 -220.32859579 251.22552687 -220.62646484 263.80078125 C-220.02929392 278.6841181 -216.15909643 289.94451692 -205.12646484 300.23828125 C-203.4820058 301.61933143 -201.81753481 302.97721505 -200.12646484 304.30078125 C-199.28341797 304.96400391 -199.28341797 304.96400391 -198.42333984 305.640625 C-189.09214571 311.88498471 -176.12642745 311.70095208 -165.32324219 311.8347168 C-156.89639592 312.02806549 -156.89639592 312.02806549 -153.12646484 315.30078125 C-152.05224609 317.2109375 -152.05224609 317.2109375 -151.43896484 319.36328125 C-151.08898437 320.55824219 -151.08898437 320.55824219 -150.73193359 321.77734375 C-150.13727943 324.25570887 -149.6832177 326.72698479 -149.25146484 329.23828125 C-147.42617331 338.87342674 -142.42685666 347.37159518 -134.54443359 353.21484375 C-124.8422148 359.6652929 -117.54560374 360.58371751 -106.07177734 360.57421875 C-103.49234591 360.59450611 -100.91291885 360.61535686 -98.33349609 360.63671875 C-94.28939002 360.6614145 -90.24534905 360.67663515 -86.20117188 360.68164062 C-82.28280858 360.6876562 -78.3649743 360.72498928 -74.44677734 360.76171875 C-73.24650909 360.75667328 -72.04624084 360.75162781 -70.80960083 360.74642944 C-62.29163229 360.84571139 -56.49332337 362.58362483 -49.31396484 367.05078125 C-43.50723653 373.02341609 -42.70874042 378.54347508 -42.7447052 386.64044189 C-42.77529563 388.69437548 -42.82534399 390.74726619 -42.87646484 392.80078125 C-42.89656318 394.20960999 -42.91480806 395.61846646 -42.93115234 397.02734375 C-42.97807281 400.45253789 -43.04371707 403.87629649 -43.12646484 407.30078125 C-68.81996774 411.99112621 -98.32335356 407.75471239 -123.12646484 400.30078125 C-123.78855957 400.10758301 -124.4506543 399.91438477 -125.1328125 399.71533203 C-159.24689823 389.63991775 -188.8221681 369.88662615 -214.12646484 345.30078125 C-215.02667358 344.42909302 -215.02667358 344.42909302 -215.94506836 343.53979492 C-241.38442869 318.55526265 -263.63882917 279.62764355 -268.56787109 244.12109375 C-267.9108099 238.43431634 -265.29236832 234.17450271 -262.50146484 229.23828125 C-261.63859863 227.67762939 -261.63859863 227.67762939 -260.75830078 226.08544922 C-255.02575666 215.8518536 -248.76002163 205.96566548 -242.31884766 196.16650391 C-241.09080899 194.31683093 -241.09080899 194.31683093 -240.12646484 192.30078125 C-239.46646484 192.30078125 -238.80646484 192.30078125 -238.12646484 192.30078125 C-237.63726562 194.16283203 -237.63726562 194.16283203 -237.13818359 196.0625 C-236.69717984 197.70453524 -236.25575118 199.34645639 -235.81396484 200.98828125 C-235.49395508 202.21321289 -235.49395508 202.21321289 -235.16748047 203.46289062 C-233.28651384 210.45442503 -233.28651384 210.45442503 -229.12646484 216.30078125 C-225.3117924 217.03533524 -221.59851819 217.26166215 -218.26123047 215.08325195 C-217.67019531 214.53241943 -217.07916016 213.98158691 -216.47021484 213.4140625 C-215.7837085 212.77871582 -215.09720215 212.14336914 -214.38989258 211.48876953 C-210.11773187 207.35899882 -205.88140488 203.19909575 -201.68896484 198.98828125 C-200.77953125 198.08271484 -199.87009766 197.17714844 -198.93310547 196.24414062 C-198.07007813 195.37982422 -197.20705078 194.51550781 -196.31787109 193.625 C-195.14526733 192.45070435 -195.14526733 192.45070435 -193.94897461 191.25268555 C-189.69378115 186.6953819 -190.8664383 180.63583365 -191.015625 174.75634766 C-191.2700637 169.11946557 -191.84632191 163.50412938 -192.41479492 157.89160156 C-192.505271 156.9940918 -192.59574707 156.09658203 -192.68896484 155.171875 C-192.77275391 154.3770874 -192.85654297 153.5822998 -192.94287109 152.76342773 C-193.00345703 151.95075439 -193.06404297 151.13808105 -193.12646484 150.30078125 C-193.22113037 149.36491684 -193.3157959 148.42905243 -193.41333008 147.46482849 C-193.03612273 143.30433177 -191.67234719 142.11938419 -188.72021484 139.21337891 C-188.01795776 138.50980759 -188.01795776 138.50980759 -187.30151367 137.79202271 C-185.75696245 136.25163776 -184.19229011 134.73357276 -182.62646484 133.21484375 C-181.54898896 132.1485634 -180.47283391 131.08094684 -179.39794922 130.01205444 C-176.570181 127.20715615 -173.72486028 124.42074394 -170.87548828 121.63781738 C-167.96915037 118.79294098 -165.07979855 115.93092712 -162.18896484 113.0703125 C-156.51793904 107.46356692 -150.82825335 101.87623893 -145.12646484 96.30078125 C-142.25936098 99.14518131 -139.49910182 101.92859441 -137.03271484 105.12890625 C-136.20984985 106.19153687 -136.20984985 106.19153687 -135.37036133 107.27563477 C-134.79487549 108.02643311 -134.21938965 108.77723145 -133.62646484 109.55078125 C-133.01552979 110.34218506 -132.40459473 111.13358887 -131.77514648 111.94897461 C-129.88800747 114.39634663 -128.00641061 116.84788075 -126.12646484 119.30078125 C-125.5629834 120.03506348 -124.99950195 120.7693457 -124.41894531 121.52587891 C-121.18431899 125.74273769 -117.95801284 129.9658872 -114.73535156 134.19189453 C-113.1184367 136.31130433 -111.49976347 138.42935772 -109.88037109 140.546875 C-109.3429126 141.24965576 -108.8054541 141.95243652 -108.25170898 142.67651367 C-107.17446075 144.08452582 -106.09682848 145.49224425 -105.01879883 146.8996582 C-102.1994168 150.58207276 -99.39016329 154.27165309 -96.59521484 157.97265625 C-96.01449219 158.73900391 -95.43376953 159.50535156 -94.83544922 160.29492188 C-93.72947354 161.75480977 -92.62641005 163.21691041 -91.52685547 164.68164062 C-86.2388438 172.23157561 -86.2388438 172.23157561 -78.31396484 175.98828125 C-70.15073026 175.44070665 -63.6364794 167.10143621 -58.25146484 161.61328125 C-57.58888672 160.95005859 -56.92630859 160.28683594 -56.24365234 159.60351562 C-50.66860071 154.271168 -50.66860071 154.271168 -48.50146484 147.11328125 C-48.66274663 142.09178934 -50.3319642 138.36391833 -52.64599609 134.00390625 C-53.38130931 132.57706189 -54.11565334 131.14971772 -54.84912109 129.72192383 C-55.2275415 128.99091461 -55.60596191 128.2599054 -55.99584961 127.50674438 C-57.79645477 123.99355219 -59.51883635 120.4433621 -61.23974609 116.890625 C-61.58058228 116.18915848 -61.92141846 115.48769196 -62.27258301 114.76496887 C-63.32915277 112.5899427 -64.3841709 110.4141691 -65.43896484 108.23828125 C-65.80675049 107.4803125 -66.17453613 106.72234375 -66.5534668 105.94140625 C-71.96373436 94.79113362 -77.35877976 83.63378256 -82.67333984 72.4375 C-84.36211648 68.88307244 -86.08504154 65.34768876 -87.82958984 61.8203125 C-88.47347656 60.50353516 -88.47347656 60.50353516 -89.13037109 59.16015625 C-89.93599303 57.51355592 -90.75051731 55.87126838 -91.57568359 54.234375 C-91.92759766 53.50992188 -92.27951172 52.78546875 -92.64208984 52.0390625 C-92.95436523 51.41040283 -93.26664063 50.78174316 -93.58837891 50.1340332 C-94.29002661 47.7435284 -94.0489942 46.61031854 -93.12646484 44.30078125 C-81.85719464 29.34277654 -66.15974969 19.37352284 -50.12646484 10.30078125 C-48.96801506 9.63959213 -47.80981744 8.97796104 -46.65185547 8.31591797 C-20.35608306 -6.69343535 -20.35608306 -6.69343535 0 0 Z " fill="#71D7FD" transform="translate(320.12646484375,56.69921875)"/>
<path d="M0 0 C1.30866028 -0.01583633 2.61732056 -0.03167267 3.96563721 -0.04798889 C5.38301959 -0.04414573 6.80039917 -0.03910573 8.21777344 -0.03295898 C9.68740226 -0.03820104 11.15702772 -0.04447965 12.62664795 -0.05174255 C15.70324557 -0.06213105 18.77938031 -0.05761153 21.85595703 -0.04296875 C25.77437147 -0.02583475 29.69131202 -0.04921521 33.60956192 -0.08445835 C36.64507535 -0.1065635 39.68024372 -0.10495871 42.71581268 -0.09669304 C44.15892904 -0.09587965 45.60207232 -0.10262453 47.04511261 -0.11746407 C57.39103132 -0.20751216 65.13462445 1.13108997 73.20214844 7.97094727 C80.39933035 16.64990193 81.60679773 23.38457888 81.56542969 34.36157227 C81.58085141 36.71183844 81.59715519 39.06209897 81.61425781 41.41235352 C81.63068547 45.09656298 81.63965438 48.78035664 81.63256836 52.46459961 C81.62993646 56.03489546 81.65815591 59.60394374 81.69042969 63.17407227 C81.67511955 64.80738495 81.67511955 64.80738495 81.65950012 66.47369385 C81.75190814 73.7679647 83.0873429 79.49126469 87.32714844 85.53344727 C92.09505214 89.99882698 96.21111669 92.63390404 102.86230469 92.67407227 C123.46618318 93.03879234 123.46618318 93.03879234 130.95214844 100.05688477 C135.48853065 105.13453986 136.57280063 108.98751499 136.67089844 115.71313477 C136.68552124 116.40351837 136.70014404 117.09390198 136.71520996 117.8052063 C136.76156754 120.00622813 136.79583229 122.2071632 136.82714844 124.40844727 C136.86851216 127.30199897 136.92228795 130.19494017 136.98339844 133.08813477 C137.00208984 134.37187988 137.02078125 135.655625 137.04003906 136.97827148 C137.4263788 141.97698956 137.4263788 141.97698956 139.32714844 146.53344727 C143.28714844 147.52344727 143.28714844 147.52344727 147.32714844 148.53344727 C146.99714844 161.40344727 146.66714844 174.27344727 146.32714844 187.53344727 C138.44155568 190.91298702 138.44155568 190.91298702 134.81152344 191.92016602 C133.6475 192.24404297 133.6475 192.24404297 132.45996094 192.57446289 C131.67363281 192.78780273 130.88730469 193.00114258 130.07714844 193.22094727 C129.27535156 193.44588867 128.47355469 193.67083008 127.64746094 193.90258789 C124.40263554 194.79518618 121.71320295 195.53344727 118.32714844 195.53344727 C118.3073291 194.83372803 118.28750977 194.13400879 118.26708984 193.41308594 C118.17067292 190.18205354 118.06147569 186.9515676 117.95214844 183.72094727 C117.90574219 182.070625 117.90574219 182.070625 117.85839844 180.38696289 C117.35394565 166.13617174 115.23893084 155.0896887 105.32324219 144.38500977 C94.76149267 134.58800532 81.35473329 133.0888455 67.49121094 133.12719727 C66.32762054 133.11636108 65.16403015 133.1055249 63.96517944 133.09436035 C59.04762416 133.04893564 54.13012983 133.03698475 49.21240234 133.0222168 C45.59681592 133.00651134 41.98166581 132.97353388 38.36621094 132.93969727 C36.70980087 132.94422913 36.70980087 132.94422913 35.01992798 132.94885254 C27.60391254 132.87665761 23.0081407 131.75916352 16.63964844 127.90844727 C10.84476561 121.95694598 9.64825798 114.24389994 8.54150391 106.29418945 C7.79524943 101.47132771 6.18036791 98.44530174 3.32714844 94.53344727 C2.99714844 93.54344727 2.66714844 92.55344727 2.32714844 91.53344727 C0.61195097 90.50693353 0.61195097 90.50693353 -1.67285156 89.53344727 C-3.42210614 88.51643879 -5.15829152 87.47971638 -6.89160156 86.43579102 C-10.72790276 84.49240159 -14.36508518 84.41246697 -18.61816406 84.39282227 C-19.77832031 84.37348633 -20.93847656 84.35415039 -22.13378906 84.33422852 C-24.55289625 84.30070144 -26.97226348 84.28217073 -29.39160156 84.27954102 C-38.1649434 84.09555261 -45.21423342 82.64905563 -51.81176758 76.55908203 C-57.39761522 70.65629611 -59.81467958 65.19446678 -60.04785156 57.03344727 C-59.8121636 48.78436869 -57.30867126 43.40139201 -51.74707031 37.39672852 C-45.54907156 31.82903472 -39.40962129 30.30685195 -31.29003906 29.89282227 C-25.96963378 29.16225915 -22.17107941 26.27332477 -18.73535156 22.28344727 C-17.73045579 19.68254055 -17.4560322 17.84066274 -17.23535156 15.09594727 C-16.84753138 10.60618287 -15.66787086 8.01414537 -12.67285156 4.53344727 C-8.32962043 1.13426899 -5.49819227 0.02971931 0 0 Z " fill="#9FE356" transform="translate(178.6728515625,265.466552734375)"/>
<path d="M0 0 C0.4967371 15.71676182 -6.74171704 30.75761827 -17.22436523 42.10498047 C-22.83578342 48.00581167 -28.6491054 53.71140203 -34.4375 59.4375 C-36.95992435 61.93330246 -39.47897989 64.43243691 -41.99609375 66.93359375 C-42.57000351 67.49920517 -43.14391327 68.06481659 -43.73521423 68.64756775 C-48.58532549 73.4153421 -48.58532549 73.4153421 -50.55078125 79.7734375 C-50.37074486 87.03051398 -46.42302327 93.3078938 -43.1875 99.625 C-42.49379785 101.01224059 -41.80200502 102.40043749 -41.11206055 103.78955078 C-39.72880385 106.57110814 -38.33783106 109.34857026 -36.94042969 112.12304688 C-34.32119214 117.33723723 -31.81227901 122.60272183 -29.3125 127.875 C-28.43935087 129.70599097 -27.56565213 131.53671994 -26.69140625 133.3671875 C-26.25715332 134.27694336 -25.82290039 135.18669922 -25.37548828 136.12402344 C-23.36361263 140.33060759 -21.34165664 144.53232516 -19.31982422 148.73413086 C-17.79411704 151.90821871 -16.27352923 155.08471446 -14.75390625 158.26171875 C-13.0731127 161.77442094 -11.37555682 165.27746204 -9.65234375 168.76953125 C-8.99727821 170.11713033 -8.34231983 171.46478151 -7.6875 172.8125 C-7.13449219 173.93269531 -6.58148438 175.05289063 -6.01171875 176.20703125 C-5 179 -5 179 -4.95703125 181.07421875 C-6.63491474 184.1723332 -9.21772818 185.86889818 -12 188 C-18.60479266 180.28466699 -24.81081707 172.3528659 -30.8671875 164.203125 C-34.02017825 159.96091927 -37.22222583 155.75761665 -40.4375 151.5625 C-40.9752002 150.86068604 -41.51290039 150.15887207 -42.06689453 149.43579102 C-43.1596372 148.00994281 -44.2525741 146.58424344 -45.34570312 145.15869141 C-47.57718521 142.24683123 -49.80452716 139.33181797 -52.03149414 136.41650391 C-53.12609477 134.98447001 -54.22161933 133.55314181 -55.31811523 132.12255859 C-57.84863415 128.82087436 -60.36969812 125.51328615 -62.86328125 122.18359375 C-63.31034424 121.59094727 -63.75740723 120.99830078 -64.21801758 120.38769531 C-65.40982506 118.80709213 -66.59578059 117.2220811 -67.78125 115.63671875 C-71.10100993 111.69158151 -73.60234727 109.30795738 -78.6875 108.1875 C-82.72104266 108.41452856 -84.5993806 110.08189524 -87.50195312 112.79150391 C-88.82018066 114.02009125 -88.82018066 114.02009125 -90.16503906 115.27349854 C-95.26159972 120.17507581 -100.28657436 125.14325027 -105.28125 130.1484375 C-106.42787379 131.29438584 -107.57464583 132.44018585 -108.72155762 133.58584595 C-111.10310548 135.96593235 -113.48286745 138.34778567 -115.86132812 140.73095703 C-118.90875469 143.78412572 -121.96071139 146.8327207 -125.01398468 149.88004112 C-127.37320608 152.23565349 -129.73004636 154.59363657 -132.08616638 156.95235062 C-133.21136621 158.07821641 -134.33730629 159.20334291 -135.46400452 160.3277092 C-137.03116888 161.8923365 -138.59509688 163.46012852 -140.15820312 165.02880859 C-141.04737427 165.91877533 -141.93654541 166.80874207 -142.85266113 167.72567749 C-147.33554207 172.47365517 -147.23823633 175.37742031 -147.1328125 181.63037109 C-146.91958082 187.04034111 -146.48507649 192.42094038 -146 197.8125 C-145.64118125 201.87345542 -145.30463761 205.93462579 -145 210 C-144.896875 211.31484375 -144.79375 212.6296875 -144.6875 213.984375 C-145.08169599 217.78836631 -146.17986994 218.92582167 -149 221.4375 C-149.7425 222.11683594 -150.485 222.79617187 -151.25 223.49609375 C-151.8275 223.99238281 -152.405 224.48867187 -153 225 C-155.21561621 222.78438379 -155.51663902 221.73399494 -156.296875 218.765625 C-156.53043701 217.89180176 -156.76399902 217.01797852 -157.00463867 216.11767578 C-157.25060791 215.17134277 -157.49657715 214.22500977 -157.75 213.25 C-158.28249936 211.25259011 -158.81505305 209.2551947 -159.34765625 207.2578125 C-159.61980957 206.22688477 -159.89196289 205.19595703 -160.17236328 204.13378906 C-161.49478722 199.1265225 -162.83786225 194.12498876 -164.1875 189.125 C-164.54376465 187.78163574 -164.54376465 187.78163574 -164.90722656 186.41113281 C-165.57552725 183.93141013 -166.28481947 181.46652813 -167 179 C-167.1851416 178.25202148 -167.3702832 177.50404297 -167.56103516 176.73339844 C-168.43219503 173.73450494 -169.15143994 171.67028055 -171.64428711 169.70117188 C-176.54190242 167.07742766 -181.86278538 165.83450618 -187.25 164.625 C-196.91371452 162.33787546 -206.38134948 159.56820505 -215.86962891 156.64697266 C-218.90253141 155.72591013 -221.94911749 154.85946089 -225 154 C-224.04270084 152.87411986 -223.08412105 151.7493285 -222.125 150.625 C-221.59132812 149.99851563 -221.05765625 149.37203125 -220.5078125 148.7265625 C-219.38567993 147.44163349 -218.20628025 146.20628025 -217 145 C-214.20452593 144.99100169 -211.52991383 145.09879181 -208.75 145.3125 C-207.94167725 145.36591553 -207.13335449 145.41933105 -206.30053711 145.47436523 C-202.55925871 145.72555429 -198.82100284 146.0135631 -195.08203125 146.296875 C-192.78333643 146.4703614 -190.48383719 146.63357951 -188.18359375 146.78515625 C-186.11065689 146.92504769 -184.03959713 147.09789913 -181.97265625 147.30859375 C-176.86103584 147.68556264 -176.86103584 147.68556264 -172.20640564 145.87214661 C-171.64063309 145.3443309 -171.07486053 144.8165152 -170.49194336 144.27270508 C-169.45830154 143.31347641 -169.45830154 143.31347641 -168.40377808 142.33486938 C-163.22923669 137.30866568 -158.0998281 132.24244705 -153.00390625 127.13671875 C-151.76234774 125.89583494 -150.52064091 124.65509952 -149.27879333 123.414505 C-146.69278088 120.82995841 -144.1085649 118.24363273 -141.52563477 115.65600586 C-138.21124931 112.33588776 -134.89234583 109.02032784 -131.57211399 105.70605755 C-129.01477104 103.15231976 -126.45980413 100.59621554 -123.90556145 98.03937721 C-122.68184785 96.81499608 -121.45738971 95.59135861 -120.23217964 94.36847496 C-118.52809202 92.66691696 -116.82722564 90.96220408 -115.12719727 89.2565918 C-114.61971954 88.75113831 -114.11224182 88.24568481 -113.58938599 87.72491455 C-110.17641303 84.46432196 -110.17641303 84.46432196 -108.8046875 80.1171875 C-108.92053896 76.42281329 -109.24164551 73.8576666 -111.74682617 71.02441406 C-112.48392822 70.40276367 -113.22103027 69.78111328 -113.98046875 69.140625 C-114.79547852 68.45145996 -115.61048828 67.76229492 -116.45019531 67.05224609 C-120.37546052 63.89294129 -124.37715303 60.85806253 -128.4375 57.875 C-135.07844027 52.94611431 -141.6722926 47.96907153 -148.1875 42.875 C-154.03908883 38.30203929 -159.91029025 33.7574685 -165.8125 29.25 C-166.50811035 28.71624756 -167.2037207 28.18249512 -167.92041016 27.63256836 C-171.24018642 25.08834901 -174.57401258 22.57046192 -177.953125 20.10546875 C-178.56438232 19.65333008 -179.17563965 19.20119141 -179.80541992 18.73535156 C-181.44842403 17.5217612 -183.10083546 16.32093583 -184.75390625 15.12109375 C-185.49511719 14.42113281 -186.23632812 13.72117187 -187 13 C-187 9 -187 9 -184.5 6.25 C-183.675 5.5075 -182.85 4.765 -182 4 C-178.2577197 5.4469349 -174.65610622 7.08441543 -171.046875 8.8359375 C-169.88317383 9.39941895 -168.71947266 9.96290039 -167.52050781 10.54345703 C-166.90647095 10.84173401 -166.29243408 11.14001099 -165.65979004 11.44732666 C-163.05527249 12.71246128 -160.44894565 13.97384766 -157.8427124 15.23544312 C-156.50591256 15.88257734 -155.16920248 16.52989702 -153.83258057 17.17739868 C-147.64523953 20.17422913 -141.44911523 23.15260372 -135.25 26.125 C-133.21875 27.09895833 -131.1875 28.07291667 -129.15625 29.046875 C-127.64998047 29.76907227 -127.64998047 29.76907227 -126.11328125 30.50585938 C-121.74715563 32.60127098 -117.3837866 34.70239776 -113.02026367 36.80322266 C-109.85566314 38.32421543 -106.68794796 39.83853884 -103.51953125 41.3515625 C-100.27329623 42.90251096 -97.0393389 44.47155042 -93.82421875 46.0859375 C-85.74788701 50.18818497 -85.74788701 50.18818497 -77 50 C-67.96056614 43.8075346 -60.38305864 34.37274731 -52.78051758 26.53369141 C-38.06215692 11.38126706 -22.0100345 -0.69873125 0 0 Z " fill="#FCFCFC" transform="translate(255,20)"/>
<path d="M0 0 C4.13446225 1.37815408 5.33817601 4.18882283 7.5 7.75 C7.9336084 8.45809814 8.3672168 9.16619629 8.81396484 9.89575195 C22.18847657 32.07104624 31.86468687 54.5827017 37 80 C37.29414795 81.41249023 37.29414795 81.41249023 37.59423828 82.85351562 C38.19290163 85.77291725 38.75855745 88.69680634 39.3125 91.625 C39.48426758 92.4814209 39.65603516 93.3378418 39.83300781 94.22021484 C41.52182004 103.72022433 41 111.91822086 41 122 C24.83 122 8.66 122 -8 122 C-8.99 118.535 -8.99 118.535 -10 115 C-13.98909245 112.30488697 -18.67158847 112.71976818 -23.33520508 112.74462891 C-24.57523537 112.73919823 -24.57523537 112.73919823 -25.84031677 112.73365784 C-27.63052583 112.72677952 -29.42075579 112.72425546 -31.21097755 112.72560501 C-34.04913556 112.72657259 -36.88691727 112.71359996 -39.72502136 112.69662476 C-47.79264409 112.6504266 -55.86022802 112.62575525 -63.92797852 112.61914062 C-68.8681685 112.61411418 -73.80796542 112.58980662 -78.74802208 112.55381393 C-80.6253695 112.54404207 -82.50277117 112.54166967 -84.38013649 112.54698563 C-87.01271928 112.55408978 -89.64413836 112.53670568 -92.27661133 112.51416016 C-93.04415741 112.52233261 -93.81170349 112.53050507 -94.60250854 112.53892517 C-100.69000954 112.44667818 -105.98058315 110.78282096 -110.53184223 106.58819008 C-117.16218251 99.05680053 -116.80756217 90.54548251 -116.24707031 81.04736328 C-115.56327825 75.3810785 -112.43630197 72.3312067 -108.4375 68.625 C-104.25570961 65.83713974 -101.0610747 64.75520938 -96.00854492 64.06298828 C-88.35975643 63.00302213 -82.47653939 61.8485869 -77 56 C-76.236875 55.195625 -75.47375 54.39125 -74.6875 53.5625 C-70.81061996 47.67538586 -69.61921068 42.57142674 -69.125 35.6875 C-68.18493666 25.83653046 -65.13260439 18.13260439 -58 11 C-49.69941018 4.51566208 -41.96392195 1.56440569 -31.50390625 1.5234375 C-30.62975571 1.50785797 -29.75560516 1.49227844 -28.85496521 1.47622681 C-26.09081784 1.42907104 -23.3269198 1.40104076 -20.5625 1.375 C-17.77325889 1.33851109 -14.98415942 1.29799009 -12.1950531 1.25234985 C-10.46569669 1.22510514 -8.73623552 1.2037617 -7.00672913 1.18881226 C-3.19394155 1.50919788 -3.19394155 1.50919788 0 0 Z " fill="#9FE456" transform="translate(424,134)"/>
<path d="M0 0 C11.73146186 1.46186441 11.73146186 1.46186441 15 3 C16.54255605 5.87476355 17.23647717 8.84446157 18 12 C18.4125 13.051875 18.825 14.10375 19.25 15.1875 C20.17683092 18.66311596 19.89904525 20.50835916 19 24 C17.51039294 26.45278987 16.0066661 28.69929522 14.3125 31 C8.7365726 38.80893652 3.59054787 46.85041136 -1.4909668 54.98828125 C-2.06371338 55.89964844 -2.63645996 56.81101562 -3.2265625 57.75 C-3.73783691 58.56984375 -4.24911133 59.3896875 -4.77587891 60.234375 C-5.38181885 61.10835938 -5.38181885 61.10835938 -6 62 C-6.33 62 -6.66 62 -7 62 C-7.54780509 40.66650338 -5.80491691 20.56767513 0 0 Z " fill="#6FD3F9" transform="translate(54,202)"/>
<path d="M0 0 C1.46300982 0.93018526 2.92025579 1.86944027 4.375 2.8125 C5.59316406 3.59560547 5.59316406 3.59560547 6.8359375 4.39453125 C9 6 9 6 11 9 C4.86297364 15.27608141 -1.29014898 21.53579823 -7.46439552 27.77526855 C-10.33089526 30.67307351 -13.1915514 33.57618899 -16.03955078 36.4921875 C-18.78855527 39.30641145 -21.55198525 42.10569738 -24.32600021 44.89526367 C-25.38142501 45.96177002 -26.43155657 47.03354172 -27.47621536 48.1105957 C-28.94131393 49.61929126 -30.42417622 51.10810886 -31.91259766 52.59375 C-32.75198883 53.44646484 -33.59138 54.29917969 -34.45620728 55.17773438 C-37.56813544 57.40698822 -39.25022098 57.45137097 -43 57 C-43.66 56.67 -44.32 56.34 -45 56 C-38.71544591 39.02866795 -16.95127276 8.47563638 0 0 Z " fill="#70D4FA" transform="translate(111,91)"/>
<path d="M0 0 C3.53366877 2.19660491 4.21332587 4.4934046 5.3125 8.4375 C4.72852417 12.26578602 3.8617437 14.66449035 1.625 17.8125 C-1.51284896 20.01747494 -3.87797187 20.30383235 -7.6875 20.4375 C-11.04445235 19.67455628 -12.30277842 18.90181915 -14.5 16.25 C-16.03030578 12.62559156 -16.23560099 10.34271954 -15.6875 6.4375 C-11.66836337 -0.21640397 -7.46939226 -1.56336117 0 0 Z " fill="#010304" transform="translate(425.6875,391.5625)"/>
<path d="M0 0 C2.69082872 0.17635452 5.32851446 0.61835921 8 1 C5.14693203 3.32472205 2.45925163 4.7508258 -1 6 C-1.042721 4.33388095 -1.04063832 2.66617115 -1 1 C-0.67 0.67 -0.34 0.34 0 0 Z " fill="#6BCCF1" transform="translate(273,37)"/>
</svg>
